<svg xmlns="http://www.w3.org/2000/svg" viewBox="0 0 24 24" fill="currentColor" width="24px" height="24px">
    <path d="M12 14c1.65 0 3-1.35 3-3V5c0-1.65-1.35-3-3-3S9 3.35 9 5v6c0 1.65 1.35 3 3 3zm5.3-3.9c-.44 0-.8.36-.8.8s.36.8.8.8c2.36 0 4.7-1.44 5.7-3.6C23.8 8.8 21.36 10 19 10zM4.7 10c2.36 0 4.7-1.44 5.7-3.6C9.8 8.8 7.36 10 5 10c-.44 0-.8.36-.8.8s.36.8.8.8zM12 16c-1.1 0-2-.9-2-2h4c0 1.1-.9 2-2 2zM7.3 16.1c-.44 0-.8.36-.8.8s.36.8.8.8c2.36 0 4.7-1.44 5.7-3.6C12.7 16.8 10.26 18 7.9 18H7.3c-.44 0-.8.36-.8.8s.36.8.8.8zM16.7 16c-.44 0-.8.36-.8.8s.36.8.8.8c2.36 0 4.7-1.44 5.7-3.6C19.7 16.8 17.26 18 14.9 18H14.3c-.44 0-.8.36-.8.8s.36.8.8.8z"/>
</svg>